<svg id="Layer_1" data-name="Layer 1" xmlns="http://www.w3.org/2000/svg" viewBox="0 0 153.47002 32.64">
    <defs>
        <style>.cls-1{fill:#fff;}</style>
    </defs>
    <path fill="transparent" stroke-width="1s" stroke="#fff" d="M16.32,32.64H137.15a16.32423,16.32423,0,0,0,16.32-16.32h0A16.32421,16.32421,0,0,0,137.15,0H16.32A16.32421,16.32421,0,0,0,0,16.32H0A16.32421,16.32421,0,0,0,16.32,32.64Z" />
    <path class="cls-1" d="M27.07315,19.52831a1.77382,1.77382,0,0,1-.60932-.11071,1.07456,1.07456,0,0,1-.51148-.40164v.24974a4.13706,4.13706,0,0,1-.236,1.40486,3.47927,3.47927,0,0,1-.6711,1.14827,3.11158,3.11158,0,0,1-1.06588.775,3.40762,3.40762,0,0,1-1.4186.28406H21.7163a3.07094,3.07094,0,0,1-2.4081-.95517,3.76985,3.76985,0,0,1-.8582-2.61578V16.85674h1.12167v2.409a2.67692,2.67692,0,0,0,.5398,1.74385,2.15408,2.15408,0,0,0,1.77132.66424h.60931a2.71268,2.71268,0,0,0,1.07275-.194,2.03625,2.03625,0,0,0,.73976-.52607,2.114,2.114,0,0,0,.4291-.77495,3.0774,3.0774,0,0,0,.139-.92771V15.52826h1.1208v1.81336a.87731.87731,0,0,0,.30466.71231,1.161,1.161,0,0,0,.77495.2566h.1519c.21283,0,.31839.19824.31839.59473,0,.41536-.10556.62305-.31839.62305Zm-4.37336-4.26266H21.343V14.07533h1.35681Z" />
    <path class="cls-1" d="M27.77859,18.31053q1.09291,0,1.09334-1.011V15.52826h1.13539v1.77131a1.03643,1.03643,0,0,0,.097.47115.88566.88566,0,0,0,.24887.31153,1.01034,1.01034,0,0,0,.35272.17249,1.53213,1.53213,0,0,0,.4085.05579q1.19074,0,1.19032-1.011V15.52826h1.13453v1.77131a.92577.92577,0,0,0,.2978.78954,1.13927,1.13927,0,0,0,.69943.22142,1.03405,1.03405,0,0,0,.75435-.26347.9968.9968,0,0,0,.26947-.74749V15.52826h1.1354v1.77131a1.11226,1.11226,0,0,0,.08925.47115.82705.82705,0,0,0,.24287.31153,1.01484,1.01484,0,0,0,.34585.17249,1.402,1.402,0,0,0,.38705.05579h.29092c.20254,0,.30466.19824.30466.59473,0,.41536-.10212.62305-.30466.62305h-.29092a2.45155,2.45155,0,0,1-.94745-.18023,1.5001,1.5001,0,0,1-.72689-.70543,1.6512,1.6512,0,0,1-.74062.70543,2.06189,2.06189,0,0,1-.80928.18023,2.23711,2.23711,0,0,1-.90025-.18023,1.52646,1.52646,0,0,1-.70544-.70543,1.61143,1.61143,0,0,1-.77495.70543,2.54559,2.54559,0,0,1-.94144.18023,2.59678,2.59678,0,0,1-.97577-.18023,1.4861,1.4861,0,0,1-.74062-.70543,1.63861,1.63861,0,0,1-.74749.70543,2.33279,2.33279,0,0,1-.91312.18023h-.51234a.2372.2372,0,0,1-.242-.145,1.15333,1.15333,0,0,1-.06265-.436,1.36747,1.36747,0,0,1,.06265-.48488.23678.23678,0,0,1,.242-.1519Zm4.78873-4.48493h-1.259v-1.162h1.259Zm.94144-1.785H32.2352V10.89143h1.27356Zm.91312,1.78505h-1.259v-1.162h1.259Z" />
    <path class="cls-1" d="M38.96173,18.31053q1.08,0,1.07961-1.011V15.52826h1.13539v1.77131a1.112,1.112,0,0,0,.09011.47115.81694.81694,0,0,0,.242.31153,1.01034,1.01034,0,0,0,.35272.17249,1.53213,1.53213,0,0,0,.4085.05579h.38705c.21283,0,.31839.19824.31839.59473,0,.41536-.10556.62305-.31839.62305h-.42824a2.42081,2.42081,0,0,1-.93457-.18023,1.50016,1.50016,0,0,1-.7269-.70543,1.67023,1.67023,0,0,1-.72689.70543,2.14971,2.14971,0,0,1-.87879.18023h-1.0101a.23722.23722,0,0,1-.242-.145,1.15337,1.15337,0,0,1-.06264-.436,1.36752,1.36752,0,0,1,.06264-.48488.2368.2368,0,0,1,.242-.1519Zm.98263,3.958H38.71285v-1.162h1.23151Zm1.88288,0H40.60947v-1.162h1.21777Z" />
    <path class="cls-1" d="M46.20061,18.31053a.94858.94858,0,0,0,.70543-.20769.7201.7201,0,0,0,.194-.51234,1.54788,1.54788,0,0,0-.07638-.46342,1.50772,1.50772,0,0,0-.39391-.56041l-2.82347-2.80973V12.49711L48.401,10.7258l.26261,1.13453-3.73658,1.42546L47.2107,15.584q.66425.66424,1.14226,1.12767.47758.46342.823.76808a5.3435,5.3435,0,0,0,.60245.47029,2.79865,2.79865,0,0,0,.46343.24974,1.37718,1.37718,0,0,0,.41537.097c.13817.00858.29092.01373.45656.01373a.23722.23722,0,0,1,.242.145,1.201,1.201,0,0,1,.06265.4497,1.31308,1.31308,0,0,1-.06265.47115.23681.23681,0,0,1-.242.1519,4.2642,4.2642,0,0,1-.7269-.05579,2.16542,2.16542,0,0,1-.64364-.22141,4.15992,4.15992,0,0,1-.69171-.47029q-.3733-.30381-.87192-.80241a1.50833,1.50833,0,0,1-.1519.70543,1.41765,1.41765,0,0,1-.40164.478,1.70292,1.70292,0,0,1-.581.27634,2.74869,2.74869,0,0,1-.72.09011H42.65712a.2372.2372,0,0,1-.242-.145,1.15333,1.15333,0,0,1-.06265-.436,1.36747,1.36747,0,0,1,.06265-.48488.23678.23678,0,0,1,.242-.1519Z" />
    <path class="cls-1" d="M52.12387,18.31053q1.08,0,1.07961-1.011V15.52826h1.13539v1.77131a1.112,1.112,0,0,0,.09011.47115.81687.81687,0,0,0,.242.31153,1.01029,1.01029,0,0,0,.35271.17249,1.53221,1.53221,0,0,0,.40851.05579h.387c.21283,0,.31839.19824.31839.59473,0,.41536-.10556.62305-.31839.62305H55.391a2.42085,2.42085,0,0,1-.93457-.18023,1.5001,1.5001,0,0,1-.72689-.70543,1.6703,1.6703,0,0,1-.7269.70543,2.14967,2.14967,0,0,1-.87879.18023H51.11378a.2372.2372,0,0,1-.242-.145,1.15313,1.15313,0,0,1-.06265-.436,1.36724,1.36724,0,0,1,.06265-.48488.23678.23678,0,0,1,.242-.1519Zm.98264,3.958H51.875v-1.162h1.23151Zm1.88288,0H53.77161v-1.162h1.21778Z" />
    <path class="cls-1" d="M56.166,18.31053q1.06588,0,1.06588-1.011V10.94721h1.13539v6.35236a1.11226,1.11226,0,0,0,.08926.47115.82713.82713,0,0,0,.24286.31153,1.01034,1.01034,0,0,0,.35272.17249,1.52745,1.52745,0,0,0,.4085.05579h.20769a.23864.23864,0,0,1,.242.145,1.22242,1.22242,0,0,1,.06179.4497,1.33659,1.33659,0,0,1-.06179.47115.2382.2382,0,0,1-.242.1519h-.24974a2.41654,2.41654,0,0,1-.93371-.18023,1.50016,1.50016,0,0,1-.7269-.70543,1.66036,1.66036,0,0,1-.73375.70543,2.133,2.133,0,0,1-.8582.18023h-.34585a.2372.2372,0,0,1-.242-.145,1.15333,1.15333,0,0,1-.06265-.436,1.36747,1.36747,0,0,1,.06265-.48488.23678.23678,0,0,1,.242-.1519Z" />
    <path class="cls-1" d="M60.92724,18.31053a1.10386,1.10386,0,0,0,.78182-.26347.96853.96853,0,0,0,.2832-.74749V15.52826h1.13539v1.8271a2.1852,2.1852,0,0,1-.5604,1.61254,2.10686,2.10686,0,0,1-1.55762.56041H59.66741a.2372.2372,0,0,1-.242-.145,1.15333,1.15333,0,0,1-.06265-.436,1.36747,1.36747,0,0,1,.06265-.48488.23678.23678,0,0,1,.242-.1519Zm.097,3.958H59.76439v-1.162h1.25983Zm.94058,1.78591H60.69124V22.89157H61.9648Zm.914-1.78591H61.619v-1.162h1.25983Z" />
    <path class="cls-1" d="M64.81658,10.94721h1.13454v8.5811H64.81658Z" />
    <path class="cls-1" d="M74.67038,16.15131a2.98634,2.98634,0,0,1,.52607.823,2.11122,2.11122,0,0,1,.16649.7964,1.70865,1.70865,0,0,1-.139.69171A1.6129,1.6129,0,0,1,74.83,19.016a1.86964,1.86964,0,0,1-.64364.37418,2.63613,2.63613,0,0,1-.88566.13817H69.50748l-.06866-1.21778h3.69539a1.01639,1.01639,0,0,0,.678-.20082.64946.64946,0,0,0,.23515-.51921,1.04072,1.04072,0,0,0-.31839-.70544l-2.463-2.80973.88566-.83073Z" />
    <path class="cls-1" d="M78.04824,21.67379a2.64547,2.64547,0,0,0,.99636-.17335,2.04163,2.04163,0,0,0,.7123-.46343,2.00436,2.00436,0,0,0,.436-.678,2.71723,2.71723,0,0,0,.18022-.83073H79.1965a3.75007,3.75007,0,0,1-1.16285-.1519,1.66272,1.66272,0,0,1-.71917-.44283,1.61688,1.61688,0,0,1-.36731-.71316,4.00654,4.00654,0,0,1-.10384-.94831,3.26555,3.26555,0,0,1,.15276-1.00323,2.54772,2.54772,0,0,1,.44283-.8376,2.13511,2.13511,0,0,1,.72689-.57413,2.2696,2.2696,0,0,1,1.017-.21455,2.57505,2.57505,0,0,1,.87879.1519,1.95342,1.95342,0,0,1,.74062.478,2.3,2.3,0,0,1,.50548.85132,3.8227,3.8227,0,0,1,.18623,1.27271v.914h1.23237a.22767.22767,0,0,1,.22828.145,1.22242,1.22242,0,0,1,.06179.4497,1.33659,1.33659,0,0,1-.06179.47115.22779.22779,0,0,1-.22828.1519H81.46643A3.89881,3.89881,0,0,1,81.197,20.8156a3.35189,3.35189,0,0,1-.672,1.06588,3.14747,3.14747,0,0,1-1.03756.726,3.30786,3.30786,0,0,1-1.35681.27033H76.69143l-.08325-1.204Zm-.1253-4.47034a1.099,1.099,0,0,0,.28406.85048,1.70089,1.70089,0,0,0,1.10021.2566h1.09334v-.8582a1.86889,1.86889,0,0,0-.339-1.253,1.20554,1.20554,0,0,0-.9483-.38018,1.08908,1.08908,0,0,0-.8788.36645A1.52389,1.52389,0,0,0,77.92294,17.20345Z" />
    <path class="cls-1" d="M83.07125,18.31053q1.06588,0,1.06588-1.011V10.94721h1.13539v6.35236a1.11226,1.11226,0,0,0,.08926.47115.82705.82705,0,0,0,.24287.31153,1.01029,1.01029,0,0,0,.35271.17249,1.52747,1.52747,0,0,0,.40851.05579h.20768a.23864.23864,0,0,1,.242.145,1.22242,1.22242,0,0,1,.06179.4497,1.33659,1.33659,0,0,1-.06179.47115.2382.2382,0,0,1-.242.1519h-.24974a2.41654,2.41654,0,0,1-.93371-.18023,1.5001,1.5001,0,0,1-.72689-.70543,1.66037,1.66037,0,0,1-.73376.70543,2.133,2.133,0,0,1-.8582.18023H82.7254a.2372.2372,0,0,1-.242-.145,1.15333,1.15333,0,0,1-.06265-.436,1.36747,1.36747,0,0,1,.06265-.48488.23678.23678,0,0,1,.242-.1519Z" />
    <path class="cls-1" d="M87.83338,18.31053a1.10386,1.10386,0,0,0,.78182-.26347.96853.96853,0,0,0,.2832-.74749V15.52826h1.13539v1.8271a2.1852,2.1852,0,0,1-.5604,1.61254,2.10686,2.10686,0,0,1-1.55762.56041H86.57355a.2372.2372,0,0,1-.242-.145,1.15333,1.15333,0,0,1-.06265-.436,1.36747,1.36747,0,0,1,.06265-.48488.23678.23678,0,0,1,.242-.1519Zm1.81251-4.48493H88.28994V12.63528h1.35595Z" />
    <path class="cls-1" d="M91.72272,10.94721h1.13453v8.5811H91.72272Z" />
    <path class="cls-1" d="M99.54174,16.15131a2.96234,2.96234,0,0,1,.52521.823,2.06589,2.06589,0,0,1,.16821.7964,1.70958,1.70958,0,0,1-.14074.69171,1.6041,1.6041,0,0,1-.39477.55353,1.84553,1.84553,0,0,1-.64193.37418,2.629,2.629,0,0,1-.88566.13817H94.37883l-.06865-1.21778h3.69367a1.02294,1.02294,0,0,0,.67969-.20082.64835.64835,0,0,0,.23686-.51921,1.042,1.042,0,0,0-.31924-.70544l-2.46474-2.80973.88566-.83073Z" />
    <path class="cls-1" d="M133.26038,21.98l6.60784-8.62014a.57779.57779,0,0,0-.50038-.8667h-2.55923a.57778.57778,0,0,1-.57778-.57777V4.28985a.5778.5778,0,0,0-.5778-.57777h-5.786a.57778.57778,0,0,0-.5778.57777v7.6255a.57777.57777,0,0,1-.57777.57777h-2.55927a.57781.57781,0,0,0-.50038.8667L132.25962,21.98A.57779.57779,0,0,0,133.26038,21.98Z" />
    <path class="cls-1" d="M140.95149,21.17784v3.70563h-16.383V21.17784a.81944.81944,0,0,0-.81943-.81944h-.72617a.81944.81944,0,0,0-.81943.81944v5.06355a.81943.81943,0,0,0,.81943.81943h19.47428a.81943.81943,0,0,0,.81943-.81943V21.17784a.81944.81944,0,0,0-.81943-.81944h-.72623A.81944.81944,0,0,0,140.95149,21.17784Z" />
</svg>