<svg id="Layer_1" data-name="Layer 1" xmlns="http://www.w3.org/2000/svg" viewBox="0 0 250 250"><defs><style>.cls-1{fill:#4e91e6;}</style></defs><g id="ntmn3C.tif"><path class="cls-1" d="M125.15,50.46h76c12.4,0,21.9,6.5,25.8,18a27.52,27.52,0,0,1,1.4,8.5c.1,32,.1,64.1,0,96.1a26.35,26.35,0,0,1-26.3,26.4q-77.1.15-154.3,0a26.21,26.21,0,0,1-26.1-25.9q-.15-48.6,0-97.3c0-13.4,10.8-24.6,24.2-25.6,1.6-.1,3.3-.1,4.9-.1Q88.1,50.41,125.15,50.46Zm.1,14.3H50.45c-9.7,0-14.3,4.6-14.3,14.2v91.7c0,9.7,4.6,14.3,14.3,14.3h149.4c9.7,0,14.3-4.6,14.3-14.2V79.06c0-9.7-4.6-14.3-14.2-14.3Z"/><path class="cls-1" d="M93.85,124.76a31.3,31.3,0,1,1,31.3,31.4A31.28,31.28,0,0,1,93.85,124.76Zm31.3,16.9a16.52,16.52,0,0,0,16.7-16.9,16.75,16.75,0,1,0-33.5,0A16.67,16.67,0,0,0,125.15,141.66Z"/><path class="cls-1" d="M60.15,124.56v-23.3a7,7,0,0,1,4.4-6.9,6.17,6.17,0,0,1,7.3,1.1,9.14,9.14,0,0,1,2.6,5.5c.2,15.9.2,31.8.1,47.8a7.26,7.26,0,0,1-7.3,7.5c-4-.1-7-3.3-7.1-7.7Z"/><path class="cls-1" d="M190.05,124.86v23.9a7.19,7.19,0,0,1-5.7,7.2,6.77,6.77,0,0,1-7.5-3.1,10.84,10.84,0,0,1-1.2-5c-.1-15.3-.1-30.7,0-46,0-5,2.9-8.1,7.2-8.1s7.2,3.2,7.2,8.1Z"/></g></svg>