<svg id="Layer_1" data-name="Layer 1" xmlns="http://www.w3.org/2000/svg" viewBox="0 0 250 250"><defs><style>.cls-1{fill:#4e91e6;}</style></defs><g id="BnFiEJ.tif"><path class="cls-1" d="M186.05,122.3c23.7,0,42.8,18.6,42.8,41.9,0,23.5-18.9,42.2-42.7,42.2-23.6,0-42.7-18.8-42.7-42S162.45,122.3,186.05,122.3Zm-26.6,41.9a26.61,26.61,0,0,0,26.7,26.6c14.8,0,26.9-11.9,26.8-26.5a26.57,26.57,0,0,0-26.7-26.4C171.35,137.9,159.45,149.5,159.45,164.2Z"/><path class="cls-1" d="M63.65,137.9a42.53,42.53,0,0,1-42.5-42.8c.1-22.9,19.6-41.7,43-41.6s42.5,19.2,42.4,42.2C106.55,118.9,87.15,138,63.65,137.9Zm26.9-42.3a26.75,26.75,0,0,0-53.5,0,26.89,26.89,0,0,0,26.8,26.6A26.61,26.61,0,0,0,90.55,95.6Z"/><path class="cls-1" d="M170.45,46.9c-.5,1.5-.8,3-1.4,4.5l-42.6,94.2c-9.1,20.2-18.3,40.4-27.4,60.6a9,9,0,0,1-8.8,5.8,8.16,8.16,0,0,1-7.9-5.8,11.07,11.07,0,0,1,.2-6.5c5.9-13.5,12-26.8,18.1-40.2q22.8-50.25,45.5-100.6c2.3-5.1,4.6-10.3,7-15.4a9,9,0,0,1,17.3,3.4Z"/></g></svg>