<svg id="Layer_1" data-name="Layer 1" xmlns="http://www.w3.org/2000/svg" viewBox="0 0 250 250"><defs><style>.cls-1{fill:#4e91e6;}</style></defs><g id="mlTHHm.tif"><path class="cls-1" d="M173.67,50c6.7,0,12.6-.1,18.5,0,5.6.2,11.4-.1,16.7,1.1,11.7,2.8,19.4,13.1,19.4,25.2.1,18.4,0,36.8,0,55.3v39.6c0,16.5-11.3,27.7-27.8,27.7-30.1,0-60.1,0-90.2-.1-2.9,0-4.5.6-5.6,3.5-1.8,4.7-4.1,9.2-6.2,13.8-2.5,5.4-7.3,7.5-12,5.3s-6.2-7-3.7-12.6q23.55-52.2,47-104.4c10.5-23.2,21-46.3,31.4-69.5,1.5-3.4,3.4-6.4,7.4-7a8.36,8.36,0,0,1,8.3,3.2,8.19,8.19,0,0,1,1.2,8.5C176.77,42.78,175.37,46,173.67,50Zm-60.6,134.2c1.4.1,2.4.3,3.3.3h84.4c8.4,0,13.2-4.9,13.2-13.3V77.48c0-8.3-5-13.2-13.3-13.2-10,0-20,.1-30-.1-2.5,0-3.8.8-4.8,3.1-5,11.5-10.2,23-15.5,34.4a4.87,4.87,0,0,0,.4,5.3c6.9,10.7,7.4,21.8,1.1,33-5.1,9-13.1,14-23.3,15.5-1.2.2-2.8.9-3.2,1.8C121.27,165.88,117.37,174.68,113.07,184.18Zm28-61.9c-2.5,5.5-4.6,10.3-6.8,15.2A13.64,13.64,0,0,0,141.07,122.28Z"/><path class="cls-1" d="M77.47,185.38,71.77,198a1.84,1.84,0,0,1-1.4.8c-9.5-.2-19.1.4-28.4-.9-11.5-1.7-20.1-12.8-20.2-24.5-.1-32.6-.1-65.1,0-97.7,0-13.3,10.8-24.4,24-25.5,1.3-.1,2.5-.1,3.8-.1h85.2c1,0,2.1.1,3.8.2-2.2,4.7-4.1,9.1-6.4,13.3-.3.6-2,.8-3.1.8-26.5,0-52.9,0-79.4.1a17.75,17.75,0,0,0-8.4,2.4c-3.7,2.1-5.1,6-5.1,10.2,0,31.6-.1,63.2,0,94.8,0,7.8,5,12.6,12.9,12.7,8.1.1,16.3,0,24.4,0h3.4A5.55,5.55,0,0,1,77.47,185.38Z"/><path class="cls-1" d="M60.17,124.18v-23.6a7.12,7.12,0,0,1,4.7-7,6.62,6.62,0,0,1,7.7,1.9,10.58,10.58,0,0,1,2,5.6c.2,15.5.1,31,.1,46.5,0,4.7-3.1,7.9-7.1,8-4.2,0-7.3-3.3-7.3-8.1C60.07,139.68,60.17,132,60.17,124.18Z"/><path class="cls-1" d="M118.27,94.68c-6.7,14.8-13.4,29.6-20.4,45-4.8-9.1-5.4-17.9-1.9-26.8,3.9-9.9,11.2-16.1,21.4-18.9A5.5,5.5,0,0,0,118.27,94.68Z"/><path class="cls-1" d="M189.87,124.28v23.9a7.12,7.12,0,0,1-5.6,7.2,6.63,6.63,0,0,1-7.5-3.1,11,11,0,0,1-1.3-4.7c-.1-15.5-.1-31,0-46.6,0-4.8,3-7.8,7.2-7.8s7.2,3.2,7.3,8.1C190,108.88,189.87,116.58,189.87,124.28Z"/></g></svg>